<mxfile host="app.diagrams.net" modified="2022-10-27T12:36:22.273Z" agent="5.0 (Windows NT 10.0; Win64; x64) AppleWebKit/537.36 (KHTML, like Gecko) Chrome/106.0.0.0 Safari/537.36" etag="gFBc7cmyfuRV7tNIgtnf" version="20.5.1" type="github">
  <diagram id="6a731a19-8d31-9384-78a2-239565b7b9f0" name="Page-1">
    <mxGraphModel dx="1038" dy="1374" grid="1" gridSize="10" guides="1" tooltips="1" connect="1" arrows="1" fold="1" page="1" pageScale="1" pageWidth="1169" pageHeight="827" math="0" shadow="0">
      <root>
        <mxCell id="0" />
        <mxCell id="1" parent="0" />
        <mxCell id="2" value="start" style="shape=mxgraph.flowchart.terminator;strokeWidth=2;gradientDirection=north;fontStyle=0;html=1;rounded=0;" parent="1" vertex="1">
          <mxGeometry x="249" y="-200" width="120" height="30" as="geometry" />
        </mxCell>
        <mxCell id="665zvWfiB6F9RU7BPrp--63" value="" style="edgeStyle=orthogonalEdgeStyle;rounded=0;orthogonalLoop=1;jettySize=auto;html=1;" edge="1" parent="1" source="3" target="665zvWfiB6F9RU7BPrp--56">
          <mxGeometry relative="1" as="geometry" />
        </mxCell>
        <mxCell id="3" value="Add Overlay Images" style="shape=mxgraph.flowchart.data;strokeWidth=2;gradientDirection=north;fontStyle=0;html=1;rounded=0;" parent="1" vertex="1">
          <mxGeometry x="229.5" y="-150" width="159" height="60" as="geometry" />
        </mxCell>
        <mxCell id="665zvWfiB6F9RU7BPrp--73" value="" style="edgeStyle=orthogonalEdgeStyle;rounded=0;orthogonalLoop=1;jettySize=auto;html=1;" edge="1" parent="1" source="4" target="665zvWfiB6F9RU7BPrp--72">
          <mxGeometry relative="1" as="geometry" />
        </mxCell>
        <mxCell id="4" value="IF Error, mark as fix." style="shape=mxgraph.flowchart.data;strokeWidth=2;gradientDirection=north;fontStyle=0;html=1;rounded=0;" parent="1" vertex="1">
          <mxGeometry x="229.5" y="260" width="159" height="80" as="geometry" />
        </mxCell>
        <mxCell id="665zvWfiB6F9RU7BPrp--70" style="edgeStyle=orthogonalEdgeStyle;rounded=0;orthogonalLoop=1;jettySize=auto;html=1;exitX=0.5;exitY=1;exitDx=0;exitDy=0;exitPerimeter=0;entryX=0.5;entryY=0;entryDx=0;entryDy=0;entryPerimeter=0;" edge="1" parent="1" source="6" target="4">
          <mxGeometry relative="1" as="geometry" />
        </mxCell>
        <mxCell id="6" value="Verify" style="shape=mxgraph.flowchart.decision;strokeWidth=2;gradientDirection=north;fontStyle=0;html=1;rounded=0;" parent="1" vertex="1">
          <mxGeometry x="260" y="160" width="98" height="57" as="geometry" />
        </mxCell>
        <mxCell id="7" style="fontStyle=1;strokeWidth=1;html=1;rounded=0;" parent="1" source="2" target="3" edge="1">
          <mxGeometry relative="1" as="geometry" />
        </mxCell>
        <mxCell id="8" style="fontStyle=1;strokeWidth=1;html=1;startArrow=none;rounded=0;entryX=0.5;entryY=0;entryDx=0;entryDy=0;entryPerimeter=0;" parent="1" source="665zvWfiB6F9RU7BPrp--64" target="6" edge="1">
          <mxGeometry relative="1" as="geometry">
            <mxPoint x="318.16666666666674" y="280" as="targetPoint" />
          </mxGeometry>
        </mxCell>
        <mxCell id="11" value="yes" style="text;fontStyle=0;html=1;strokeColor=none;fillColor=none;strokeWidth=2;rounded=0;" parent="1" vertex="1">
          <mxGeometry x="369" y="160" width="40" height="26" as="geometry" />
        </mxCell>
        <mxCell id="13" value="Fix Water Mark" style="shape=mxgraph.flowchart.data;strokeWidth=2;gradientDirection=north;fontStyle=0;html=1;rounded=0;" parent="1" vertex="1">
          <mxGeometry x="40" y="270" width="159" height="80" as="geometry" />
        </mxCell>
        <mxCell id="14" value="no" style="text;fontStyle=0;html=1;strokeColor=none;fillColor=none;strokeWidth=2;align=center;rounded=0;" parent="1" vertex="1">
          <mxGeometry x="310" y="210" width="40" height="26" as="geometry" />
        </mxCell>
        <mxCell id="17" value="" style="edgeStyle=elbowEdgeStyle;elbow=horizontal;fontStyle=1;strokeWidth=1;html=1;rounded=0;entryX=0.923;entryY=0.385;entryDx=0;entryDy=0;entryPerimeter=0;exitX=0.095;exitY=0.5;exitDx=0;exitDy=0;exitPerimeter=0;" parent="1" source="4" target="13" edge="1">
          <mxGeometry width="100" height="100" as="geometry">
            <mxPoint y="100" as="sourcePoint" />
            <mxPoint x="100" as="targetPoint" />
            <Array as="points">
              <mxPoint x="190" y="310" />
            </Array>
          </mxGeometry>
        </mxCell>
        <mxCell id="40" value="Final Image&lt;br&gt;End" style="shape=mxgraph.flowchart.terminator;strokeWidth=2;gradientDirection=north;fontStyle=0;html=1;rounded=0;" parent="1" vertex="1">
          <mxGeometry x="500" y="163.5" width="120" height="50" as="geometry" />
        </mxCell>
        <mxCell id="665zvWfiB6F9RU7BPrp--67" value="" style="edgeStyle=orthogonalEdgeStyle;rounded=0;orthogonalLoop=1;jettySize=auto;html=1;" edge="1" parent="1" source="665zvWfiB6F9RU7BPrp--56" target="665zvWfiB6F9RU7BPrp--64">
          <mxGeometry relative="1" as="geometry" />
        </mxCell>
        <mxCell id="665zvWfiB6F9RU7BPrp--56" value="Assign Overlay ID to Background Profiles." style="shape=mxgraph.flowchart.data;strokeWidth=2;gradientDirection=north;fontStyle=0;html=1;align=center;textDirection=ltr;whiteSpace=wrap;rounded=0;" vertex="1" parent="1">
          <mxGeometry x="229.5" y="-50" width="159" height="80" as="geometry" />
        </mxCell>
        <mxCell id="665zvWfiB6F9RU7BPrp--64" value="Output Image" style="shape=mxgraph.flowchart.data;strokeWidth=2;gradientDirection=north;fontStyle=0;align=center;textDirection=ltr;html=1;whiteSpace=wrap;rounded=0;" vertex="1" parent="1">
          <mxGeometry x="229.5" y="50" width="159" height="80" as="geometry" />
        </mxCell>
        <mxCell id="665zvWfiB6F9RU7BPrp--72" value="Fix Background" style="shape=mxgraph.flowchart.data;strokeWidth=2;gradientDirection=north;fontStyle=0;html=1;rounded=0;" vertex="1" parent="1">
          <mxGeometry x="210" y="374" width="159" height="80" as="geometry" />
        </mxCell>
        <mxCell id="665zvWfiB6F9RU7BPrp--74" value="" style="edgeStyle=orthogonalEdgeStyle;rounded=0;orthogonalLoop=1;jettySize=auto;html=1;exitX=0.095;exitY=0.5;exitDx=0;exitDy=0;exitPerimeter=0;entryX=0.42;entryY=1.025;entryDx=0;entryDy=0;entryPerimeter=0;" edge="1" parent="1" source="665zvWfiB6F9RU7BPrp--72" target="13">
          <mxGeometry relative="1" as="geometry">
            <mxPoint x="169.5" y="420" as="sourcePoint" />
            <mxPoint x="150" y="454" as="targetPoint" />
          </mxGeometry>
        </mxCell>
        <mxCell id="665zvWfiB6F9RU7BPrp--76" value="&lt;span style=&quot;color: rgba(0, 0, 0, 0); font-family: monospace; font-size: 0px; text-align: start;&quot;&gt;%3CmxGraphModel%3E%3Croot%3E%3CmxCell%20id%3D%220%22%2F%3E%3CmxCell%20id%3D%221%22%20parent%3D%220%22%2F%3E%3CmxCell%20id%3D%222%22%20value%3D%22%22%20style%3D%22edgeStyle%3DorthogonalEdgeStyle%3Brounded%3D0%3BorthogonalLoop%3D1%3BjettySize%3Dauto%3Bhtml%3D1%3BexitX%3D0.095%3BexitY%3D0.5%3BexitDx%3D0%3BexitDy%3D0%3BexitPerimeter%3D0%3BentryX%3D0.42%3BentryY%3D1.025%3BentryDx%3D0%3BentryDy%3D0%3BentryPerimeter%3D0%3B%22%20edge%3D%221%22%20parent%3D%221%22%3E%3CmxGeometry%20relative%3D%221%22%20as%3D%22geometry%22%3E%3CmxPoint%20x%3D%22225.10500000000002%22%20y%3D%22414%22%20as%3D%22sourcePoint%22%2F%3E%3CmxPoint%20x%3D%22106.77999999999997%22%20y%3D%22352%22%20as%3D%22targetPoint%22%2F%3E%3C%2FmxGeometry%3E%3C%2FmxCell%3E%3C%2Froot%3E%3C%2FmxGraphModel%3E&lt;/span&gt;&lt;span style=&quot;color: rgba(0, 0, 0, 0); font-family: monospace; font-size: 0px; text-align: start;&quot;&gt;%3CmxGraphModel%3E%3Croot%3E%3CmxCell%20id%3D%220%22%2F%3E%3CmxCell%20id%3D%221%22%20parent%3D%220%22%2F%3E%3CmxCell%20id%3D%222%22%20value%3D%22%22%20style%3D%22edgeStyle%3DorthogonalEdgeStyle%3Brounded%3D0%3BorthogonalLoop%3D1%3BjettySize%3Dauto%3Bhtml%3D1%3BexitX%3D0.095%3BexitY%3D0.5%3BexitDx%3D0%3BexitDy%3D0%3BexitPerimeter%3D0%3BentryX%3D0.42%3BentryY%3D1.025%3BentryDx%3D0%3BentryDy%3D0%3BentryPerimeter%3D0%3B%22%20edge%3D%221%22%20parent%3D%221%22%3E%3CmxGeometry%20relative%3D%221%22%20as%3D%22geometry%22%3E%3CmxPoint%20x%3D%22225.10500000000002%22%20y%3D%22414%22%20as%3D%22sourcePoint%22%2F%3E%3CmxPoint%20x%3D%22106.77999999999997%22%20y%3D%22352%22%20as%3D%22targetPoint%22%2F%3E%3C%2FmxGeometry%3E%3C%2FmxCell%3E%3C%2Froot%3E%3C%2FmxGraphModel%3E&lt;/span&gt;" style="text;html=1;align=center;verticalAlign=middle;resizable=0;points=[];autosize=1;strokeColor=none;fillColor=none;" vertex="1" parent="1">
          <mxGeometry x="100" y="175" width="20" height="30" as="geometry" />
        </mxCell>
        <mxCell id="665zvWfiB6F9RU7BPrp--82" value="" style="endArrow=classic;html=1;rounded=0;entryX=0;entryY=0.5;entryDx=0;entryDy=0;entryPerimeter=0;" edge="1" parent="1" source="13" target="6">
          <mxGeometry width="50" height="50" relative="1" as="geometry">
            <mxPoint x="510" y="460" as="sourcePoint" />
            <mxPoint x="560" y="410" as="targetPoint" />
            <Array as="points">
              <mxPoint x="120" y="190" />
            </Array>
          </mxGeometry>
        </mxCell>
        <mxCell id="665zvWfiB6F9RU7BPrp--83" value="" style="endArrow=classic;html=1;rounded=0;entryX=0;entryY=0.5;entryDx=0;entryDy=0;entryPerimeter=0;exitX=1;exitY=0.5;exitDx=0;exitDy=0;exitPerimeter=0;" edge="1" parent="1" source="6" target="40">
          <mxGeometry width="50" height="50" relative="1" as="geometry">
            <mxPoint x="240" y="200" as="sourcePoint" />
            <mxPoint x="290" y="150" as="targetPoint" />
          </mxGeometry>
        </mxCell>
      </root>
    </mxGraphModel>
  </diagram>
</mxfile>
